<svg width="20" height="21" viewBox="0 0 20 21" fill="none" xmlns="http://www.w3.org/2000/svg">
<g clip-path="url(#clip0_1_602)">
<path d="M17.4872 13.3024C15.8333 15.5 13.2909 17.4707 11.5 17.5C5.66667 17.5 1 10.6667 1 10.6667C2.03657 8.73494 6 4.7657 8.41667 4.20002M8.41667 4.20002C8.99028 4.06576 9.57755 3.99864 10.1667 4.00002C16 4.00002 19.3333 10.6667 19.3333 10.6667C18.8275 11.613 18.1781 12.4813 17.4872 13.3024M9 8.50002C11.6667 8.50002 13.8333 11 11.1218 13.0126C10.8151 13.1493 10.4841 13.2227 10.1484 13.2287C9.81273 13.2346 9.4793 13.1728 9.16801 13.0471C8.85671 12.9214 8.57393 12.7342 8.33654 12.4968C8.09914 12.2594 7.91199 11.9766 7.78626 11.6653C7.66052 11.3541 7.59877 11.0206 7.60469 10.6849C7.61062 10.3493 7.68409 10.0182 7.82073 9.71156C8 9.00002 8.75438 8.7289 9 8.50002Z" stroke="#94A3B8" stroke-width="1.5" stroke-linecap="round" stroke-linejoin="round"/>
</g>
<defs>
<clipPath id="clip0_1_602">
<rect width="20" height="20" fill="white" transform="translate(0 0.5)"/>
</clipPath>
</defs>
</svg>
